<svg id="Icon_Finished" data-name="Icon Finished" xmlns="http://www.w3.org/2000/svg" width="17.443"
  height="22" viewBox="0 0 17.443 22">
  <path id="finished"
    d="M-1363.547-322.159l-.983-12.38a1.547,1.547,0,0,0-1.536-1.422h-1.941v-.087a4.257,4.257,0,0,0-4.253-4.253,4.257,4.257,0,0,0-4.253,4.253v.087h-1.941a1.547,1.547,0,0,0-1.536,1.421l-.983,12.383a3.593,3.593,0,0,0,.944,2.708,3.593,3.593,0,0,0,2.628,1.148h10.279a3.593,3.593,0,0,0,2.628-1.148A3.594,3.594,0,0,0-1363.547-322.159Zm-11.675-13.89a2.967,2.967,0,0,1,2.964-2.964,2.967,2.967,0,0,1,2.964,2.964v.087h-5.928Zm9.786,15.724a2.27,2.27,0,0,1-1.683.735H-1377.4a2.27,2.27,0,0,1-1.683-.735,2.269,2.269,0,0,1-.6-1.732l.983-12.383a.253.253,0,0,1,.251-.232h1.941v1.587a.644.644,0,0,0,.644.644.644.644,0,0,0,.644-.644v-1.587h5.928v1.587a.644.644,0,0,0,.644.644.644.644,0,0,0,.644-.644v-1.587h1.941a.253.253,0,0,1,.251.234l.982,12.38A2.27,2.27,0,0,1-1365.436-320.325Z"
    transform="translate(1380.98 340.301)" />
</svg>